<svg id="bugs" xmlns="http://www.w3.org/2000/svg" width="59.5" height="63.467" viewBox="0 0 59.5 63.467">
  <circle id="Ellipse_26" data-name="Ellipse 26" cx="1.859" cy="1.859" r="1.859" transform="translate(15.123 37.438)"/>
  <circle id="Ellipse_27" data-name="Ellipse 27" cx="1.859" cy="1.859" r="1.859" transform="translate(20.453 29.876)"/>
  <circle id="Ellipse_28" data-name="Ellipse 28" cx="1.859" cy="1.859" r="1.859" transform="translate(20.453 44.752)"/>
  <circle id="Ellipse_29" data-name="Ellipse 29" cx="1.859" cy="1.859" r="1.859" transform="translate(40.782 37.314)"/>
  <circle id="Ellipse_30" data-name="Ellipse 30" cx="1.859" cy="1.859" r="1.859" transform="translate(35.328 29.876)"/>
  <circle id="Ellipse_31" data-name="Ellipse 31" cx="1.859" cy="1.859" r="1.859" transform="translate(35.328 44.752)"/>
  <path id="Tracé_15" data-name="Tracé 15" d="M73.641,36.322H69.694a25.911,25.911,0,0,0-2.653-9.679l3.147-2.033a1.859,1.859,0,0,0-2.018-3.124l-3.032,1.958a24.7,24.7,0,0,0-5.044-5.324,14.575,14.575,0,0,0-6.682-11.41l1.525-4.219a1.859,1.859,0,1,0-3.5-1.264l-1.409,3.9a14.237,14.237,0,0,0-8.56,0l-1.409-3.9a1.859,1.859,0,1,0-3.5,1.264l1.525,4.219a14.576,14.576,0,0,0-6.682,11.41,24.7,24.7,0,0,0-5.044,5.324L23.33,21.486a1.859,1.859,0,0,0-2.018,3.124l3.147,2.033a25.912,25.912,0,0,0-2.653,9.679H17.859a1.859,1.859,0,0,0,0,3.719h3.935a25.912,25.912,0,0,0,2.6,9.721l-3.082,1.991a1.859,1.859,0,0,0,2.018,3.124l2.949-1.9c9.707,14.061,29.331,13.923,38.942,0l2.949,1.9a1.859,1.859,0,0,0,2.018-3.124l-3.082-1.991a25.908,25.908,0,0,0,2.6-9.721h3.935a1.859,1.859,0,0,0,0-3.719ZM45.75,8.186A10.739,10.739,0,0,1,56.384,18.372,26.924,26.924,0,0,1,45.75,20.579a26.925,26.925,0,0,1-10.634-2.207A10.739,10.739,0,0,1,45.75,8.186Zm-20.3,30.055a21.827,21.827,0,0,1,7.674-16.729C35.592,23,40.594,24,43.891,24.228V59.661C33.522,58.658,25.452,49.386,25.452,38.242ZM47.609,59.661V24.228C50.861,24,55.9,23,58.375,21.513a21.827,21.827,0,0,1,7.674,16.728C66.048,49.373,57.989,58.657,47.609,59.661Z" transform="translate(-16 0)"/>
</svg>
