<svg xmlns="http://www.w3.org/2000/svg" width="52.808" height="51.505" viewBox="0 0 52.808 51.505">
  <path id="Octicons-mark-github" d="M26.4,0a26.4,26.4,0,0,0-8.35,51.454c1.32.231,1.815-.561,1.815-1.254,0-.627-.033-2.706-.033-4.918-6.634,1.221-8.35-1.617-8.878-3.1-.3-.759-1.584-3.1-2.706-3.73-.924-.5-2.244-1.716-.033-1.749,2.079-.033,3.565,1.914,4.06,2.706,2.376,3.994,6.172,2.871,7.69,2.178a5.554,5.554,0,0,1,1.683-3.532c-5.875-.66-12.014-2.937-12.014-13.037a10.276,10.276,0,0,1,2.706-7.1,9.488,9.488,0,0,1,.264-7s2.211-.693,7.261,2.706a24.894,24.894,0,0,1,13.2,0c5.05-3.432,7.261-2.706,7.261-2.706a9.488,9.488,0,0,1,.264,7,10.216,10.216,0,0,1,2.706,7.1c0,10.132-6.172,12.377-12.047,13.037a6.253,6.253,0,0,1,1.782,4.885c0,3.532-.033,6.37-.033,7.261,0,.693.5,1.518,1.815,1.254A26.418,26.418,0,0,0,26.4,0Z" fill="#1b1f23" fill-rule="evenodd"/>
</svg>
